<svg xmlns="http://www.w3.org/2000/svg" width="32" height="32" viewBox="0 0 32 32" fill="none">
  <defs>
    <linearGradient id="g1" x1="0" y1="0" x2="32" y2="32" gradientUnits="userSpaceOnUse">
      <stop offset="0%" stop-color="#a855f7"/>
      <stop offset="100%" stop-color="#ec4899"/>
    </linearGradient>
  </defs>
  <rect width="32" height="32" rx="8" fill="url(#g1)"/>
  <g transform="translate(5,4)" fill="none" stroke="white" stroke-width="1.5" stroke-linecap="round" stroke-linejoin="round">
    <rect x="1" y="10" width="20" height="12" rx="1.5"/>
    <rect x="0" y="6" width="22" height="5" rx="1.5"/>
    <line x1="11" y1="6" x2="11" y2="22"/>
    <path d="M11 6C11 6 11 2 7.5 2C6 2 4.5 3 4.5 4.5C4.5 6 6 6 7.5 6H11Z"/>
    <path d="M11 6C11 6 11 2 14.5 2C16 2 17.5 3 17.5 4.5C17.5 6 16 6 14.5 6H11Z"/>
  </g>
</svg>
